<?xml version="1.0" encoding="iso-8859-1"?>
<!-- Generator: Adobe Illustrator 19.0.0, SVG Export Plug-In . SVG Version: 6.00 Build 0)  -->
<svg version="1.1" id="Capa_1" xmlns="http://www.w3.org/2000/svg" xmlns:xlink="http://www.w3.org/1999/xlink" x="0px" y="0px"
	 viewBox="0 0 512.001 512.001" style="enable-background:new 0 0 512.001 512.001;" xml:space="preserve">
<g>
	<g>
		<path d="M507.578,1.162c-3.648-2.284-8.435-1.088-10.592,2.601l-73.725,126.045l-52.282,90.652l-43.401,75.221l-26.309-16.721
			l55.851-96.806c2.136-3.701,0.803-8.451-2.987-10.489c-3.663-1.97-8.251-0.43-10.329,3.172l-81.261,140.847
			c-13.135,22.78-37.315,36.932-63.104,36.932H25.733c-13.663,0-24.78,11.285-24.78,25.157v49.859
			c0,13.883,11.116,25.177,24.78,25.177h183.519v21.974c0,21.218,31.015,37.218,72.143,37.218s72.143-16,72.143-37.218v-38.664
			c0-5.108-1.797-12.089-9.318-18.919c-3.515-3.191-9.086-2.355-11.558,1.699l-0.012,0.02c-1.871,3.066-1.374,7.065,1.28,9.484
			c2.854,2.6,4.417,5.282,4.417,7.715c0,9.198-21.666,22.027-56.951,22.027c-29.665,0-49.699-9.067-55.33-17.422
			c-0.053-0.09-0.112-0.176-0.169-0.264c-0.953-1.492-1.452-2.957-1.452-4.341c0-9.198,21.666-22.027,56.951-22.027
			c8.623,0,17.068,0.827,24.802,2.413c3.887,0.797,7.72-1.568,8.795-5.387c1.199-4.266-1.494-8.626-5.836-9.51
			c-7.463-1.52-15.465-2.415-23.634-2.642l98.617-170.915l52.26-90.613l73.539-125.731C512.039,8.117,511.103,3.369,507.578,1.162z
			 M25.733,437.616c-5.288,0-9.589-4.479-9.589-9.986v-49.859c0-5.495,4.301-9.966,9.588-9.966h19.456l8.733,69.81H25.733z
			 M83.54,437.616H69.232l-8.733-69.81H92.07L83.54,437.616z M98.845,437.616l8.531-69.81h16.933l8.53,69.81H98.845z
			 M163.685,437.616h-15.541l-8.531-69.81h32.602L163.685,437.616z M281.395,473.336c23.664,0,43.964-5.304,56.951-13.845v15.29
			c0,9.198-21.666,22.027-56.951,22.027s-56.951-12.829-56.951-22.027v-15.29C237.43,468.033,257.731,473.336,281.395,473.336z
			 M267.659,399.528c-34.102,3.127-58.408,17.811-58.408,36.59v1.498h-30.263l8.531-69.81h11.919
			c31.203,0,60.426-17.065,76.264-44.534l17.968-31.143l26.309,16.721L267.659,399.528z"/>
	</g>
</g>
<g>
	<g>
		<path d="M452.295,1.959c-3.634-2.096-8.278-0.85-10.375,2.785l-83.44,144.65c-2.094,3.632-0.848,8.277,2.785,10.374
			c1.195,0.69,2.501,1.018,3.789,1.018c2.626,0,5.18-1.363,6.586-3.802l83.44-144.65C457.176,8.7,455.929,4.054,452.295,1.959z"/>
	</g>
</g>
<g>
</g>
<g>
</g>
<g>
</g>
<g>
</g>
<g>
</g>
<g>
</g>
<g>
</g>
<g>
</g>
<g>
</g>
<g>
</g>
<g>
</g>
<g>
</g>
<g>
</g>
<g>
</g>
<g>
</g>
</svg>
